<?xml version="1.0" standalone="no"?><!DOCTYPE svg PUBLIC "-//W3C//DTD SVG 1.1//EN" "http://www.w3.org/Graphics/SVG/1.1/DTD/svg11.dtd"><svg t="1631674434170" class="icon" viewBox="0 0 1024 1024" version="1.1" xmlns="http://www.w3.org/2000/svg" p-id="3769" xmlns:xlink="http://www.w3.org/1999/xlink" width="200" height="200"><defs><style type="text/css"></style></defs><path d="M513.062 7.365c-272.028 0-493.96 216.026-504.719 485.47-0.253 0.902-0.758 1.657-0.87 2.592-0.254 1.991 0.143 3.901 0.45 5.81-0.112 3.992-0.62 7.868-0.62 11.89 0 278.886 226.873 505.753 505.76 505.753 278.909 0 505.817-226.867 505.817-505.756 0-278.884-226.908-505.759-505.818-505.759z m383.273 539.087c-9.295 24.728-21.947 40.436-37.624 46.764-21.3 8.65-43.41-2.422-43.469-2.483a21.09 21.09 0 0 0-4.1-1.657c-39.957-11.432-33.045-96.404-27.452-125.265a21.171 21.171 0 0 0-4.751-17.785c-4.214-4.892-10.453-7.703-16.914-7.28-44.959 2.135-57.659-59.572-57.859-59.572-5.565-93.432 142.493-142.72 173.205-151.902 37.934 48.215 66.312 104.048 82.81 164.884-71.797 35.154-66.516 129.874-63.846 154.296zM49.902 522.284c52.065 7.9 106.214 20.518 116.78 30.07a21.128 21.128 0 0 0 11.128 5.252c3.932 0.564 96.689 13.233 139.963-47.344a21.637 21.637 0 0 0 3.456-7.788c1.968-9.078 7.334-20.034 9.58-21.58 0.086 0.028 9.412 1.8 27.455 29 9.388 13.798 37.622 32.68 79.015 9.945 5.028 0.31 14.891 1.881 24.25 9.357 13.571 10.844 22.224 31.331 25.063 59.258a21.066 21.066 0 0 0 9.162 15.317 21.094 21.094 0 0 0 17.59 2.831c0.507-0.164 51.057-14.134 83.287 5.875 12.87 7.98 21.074 20.544 25.037 38.354-2.926 6.749-20.682 20.88-76.096 19.73a21.624 21.624 0 0 0-7.726 1.29c-31.473 11.47-86.633 53.976-74.857 133.438-3.935 11.894-19.082 47.72-58.954 44.352l-193.606 6.067c-2.444 0.085-4.718 0.789-6.883 1.628-92.191-83.028-151.033-202.145-153.644-335.052z m463.16 454.448c-96.407 0-186.02-29.64-260.254-80.187l150.302-4.813c64.041 4.662 94.638-50.27 101.945-80.133a21.614 21.614 0 0 0 0.281-8.773c-10.849-60.045 30.85-84.126 43.807-90.058 46.702-0.225 80.248-8.876 99.302-28.014 15.486-15.54 15.821-31.782 15.734-34.872a20.961 20.961 0 0 0-0.338-3.257c-5.844-31.639-21.045-55.216-45.13-70.105-31.101-19.17-69.57-18.238-93.706-15.035-6.323-28.69-18.745-50.578-37.125-65.221-26.888-21.468-55.831-18.683-59.062-18.24a21.386 21.386 0 0 0-8.486 2.954c-15.174 9.36-24.48 8.264-27.032 5.396-8.768-13.207-35.238-53.614-69.772-46.927-27.397 5.225-38.608 35.825-42.258 49.288-24.924 30.428-76.375 28.83-92.506 27.617-29.025-18.765-98.094-30.876-137.574-36.526C68.388 239.718 268.705 49.513 513.116 49.513c131.336 0 249.802 55.132 334.241 143.14-57.464 19.835-191.78 78.477-184.896 191.746 5.735 29.899 28.64 82.25 76.685 94.137-4.382 42.393-5.314 130.547 58.614 150.49 5.903 2.762 22.705 9.556 43.607 9.556 10.117 0 21.215-1.603 32.51-6.04 28.748-11.291 50.3-37.176 63.987-76.825a21.12 21.12 0 0 0 0.898-10.14c-0.14-0.84-11.438-77.778 31.05-109.67 4.186 25.149 6.912 50.857 6.912 77.214 0.006 255.65-207.987 463.611-463.662 463.611z" fill="#1296db" p-id="3770"></path><path d="M568.302 161.096c-18.291-16.466-34.506-23.998-36.303-24.781-2.975-1.324-6.208-1.997-9.467-1.802-18.238 0.732-33.805 8.345-45.015 21.972-23.184 28.186-21.665 75.674-19.671 96.494-17.674 22.9-25.342 46.224-22.843 69.43 3.794 34.931 29.335 54.85 32.258 56.988a20.826 20.826 0 0 0 10.537 4.073c5.397 0.56 10.594 0.786 15.568 0.786 57.769 0 99.527-33.436 117.622-94.188 4.577-15.398 1.717-37.877-1.488-54.033-4.16-20.79-30.628-65.414-41.198-74.94z m2.284 116.95c-13.18 44.145-40.326 65.36-81.969 63.929-4.188-4.498-10.509-12.984-11.717-24.136-1.462-13.547 4.861-28.608 18.826-44.651a21.048 21.048 0 0 0 4.915-17.055c-2.61-16.86-3.763-56.847 9.416-72.89 2.588-3.147 5.51-5.087 9.329-5.986 4.697 2.698 12.31 7.585 20.375 14.81 5.813 6.123 26.101 40.686 28.405 52.18 3.623 18.486 3.451 30.341 2.42 33.8z" fill="#1296db" p-id="3771"></path></svg>